<svg width="340" height="259" viewBox="0 0 340 259" fill="none" xmlns="http://www.w3.org/2000/svg">
    <g filter="url(#filter0_d_145_908)">
        <path
            d="M158.518 50.6078C143.692 21.0193 114.342 1 80.7347 1C47.1275 1 17.7687 21.0333 2.95123 50.6106C2.32584 51.8759 2 53.274 2 54.6919C2 56.1098 2.32584 57.5078 2.95123 58.7732C17.7769 88.3617 47.1275 108.381 80.7347 108.381C114.342 108.381 143.701 88.3477 158.518 58.7704C159.143 57.505 159.469 56.107 159.469 54.6891C159.469 53.2712 159.143 51.8731 158.518 50.6078ZM80.7347 94.9583C72.9485 94.9583 65.3372 92.5967 58.8633 88.172C52.3894 83.7473 47.3436 77.4583 44.3639 70.1003C41.3843 62.7423 40.6047 54.6458 42.1237 46.8346C43.6427 39.0234 47.3921 31.8484 52.8977 26.2168C58.4033 20.5852 65.4179 16.7501 73.0545 15.1964C80.691 13.6426 88.6065 14.44 95.7999 17.4878C102.993 20.5356 109.142 25.6968 113.467 32.3189C117.793 38.9409 120.102 46.7262 120.102 54.6905C120.105 59.9793 119.088 65.2167 117.111 70.1034C115.133 74.99 112.233 79.4302 108.577 83.1699C104.921 86.9096 100.58 89.8756 95.8029 91.8984C91.0255 93.9211 85.9052 94.9609 80.7347 94.9583ZM80.7347 27.8452V27.8452C77.2993 27.8943 75.9228 31.9787 76.2845 35.3953C76.3701 36.204 76.384 37.0238 76.3232 37.8449C76.0872 41.0358 74.7411 44.0344 72.529 46.2971C70.3169 48.5599 67.3853 49.9367 64.2658 50.1781V50.1781C59.8311 50.5213 54.3418 52.4079 54.701 56.8414C54.8982 59.2752 55.4211 61.6844 56.2664 63.9996C58.1828 69.2482 61.66 73.75 66.2087 76.8712C70.7573 79.9925 76.1484 81.5762 81.6231 81.3993C87.0977 81.2223 92.3803 79.2938 96.7273 75.8851C101.074 72.4764 104.267 67.7591 105.856 62.3973C107.444 57.0354 107.349 51.299 105.583 45.9953C103.818 40.6917 100.471 36.088 96.0131 32.832C91.5556 29.5761 86.2121 27.8321 80.7347 27.8452Z"
            fill="#EB5757" />
    </g>
    <g filter="url(#filter1_d_145_908)">
        <path
            d="M324.105 108.381H192.618C185.356 108.381 179.469 102.372 179.469 94.9583V14.4226C179.469 7.00942 185.356 1 192.618 1H324.105C331.367 1 337.253 7.00942 337.253 14.4226V94.9583C337.253 102.372 331.367 108.381 324.105 108.381ZM214.532 33.438V22.2525C214.532 20.3993 213.061 18.8968 211.245 18.8968H200.288C198.473 18.8968 197.001 20.3993 197.001 22.2525V33.438C197.001 35.2912 198.473 36.7937 200.288 36.7937H211.245C213.061 36.7937 214.532 35.2912 214.532 33.438ZM240.83 33.438V22.2525C240.83 20.3993 239.358 18.8968 237.543 18.8968H226.585C224.77 18.8968 223.298 20.3993 223.298 22.2525V33.438C223.298 35.2912 224.77 36.7937 226.585 36.7937H237.543C239.358 36.7937 240.83 35.2912 240.83 33.438ZM267.127 33.438V22.2525C267.127 20.3993 265.655 18.8968 263.84 18.8968H252.883C251.067 18.8968 249.596 20.3993 249.596 22.2525V33.438C249.596 35.2912 251.067 36.7937 252.883 36.7937H263.84C265.655 36.7937 267.127 35.2912 267.127 33.438ZM293.425 33.438V22.2525C293.425 20.3993 291.953 18.8968 290.137 18.8968H279.18C277.365 18.8968 275.893 20.3993 275.893 22.2525V33.438C275.893 35.2912 277.365 36.7937 279.18 36.7937H290.137C291.953 36.7937 293.425 35.2912 293.425 33.438ZM319.722 33.438V22.2525C319.722 20.3993 318.25 18.8968 316.435 18.8968H305.477C303.662 18.8968 302.19 20.3993 302.19 22.2525V33.438C302.19 35.2912 303.662 36.7937 305.477 36.7937H316.435C318.25 36.7937 319.722 35.2912 319.722 33.438ZM227.681 60.2832V49.0977C227.681 47.2446 226.209 45.7421 224.394 45.7421H213.437C211.621 45.7421 210.15 47.2446 210.15 49.0977V60.2832C210.15 62.1364 211.621 63.6389 213.437 63.6389H224.394C226.209 63.6389 227.681 62.1364 227.681 60.2832ZM253.978 60.2832V49.0977C253.978 47.2446 252.507 45.7421 250.691 45.7421H239.734C237.919 45.7421 236.447 47.2446 236.447 49.0977V60.2832C236.447 62.1364 237.919 63.6389 239.734 63.6389H250.691C252.507 63.6389 253.978 62.1364 253.978 60.2832ZM280.276 60.2832V49.0977C280.276 47.2446 278.804 45.7421 276.989 45.7421H266.031C264.216 45.7421 262.744 47.2446 262.744 49.0977V60.2832C262.744 62.1364 264.216 63.6389 266.031 63.6389H276.989C278.804 63.6389 280.276 62.1364 280.276 60.2832ZM306.573 60.2832V49.0977C306.573 47.2446 305.101 45.7421 303.286 45.7421H292.329C290.513 45.7421 289.042 47.2446 289.042 49.0977V60.2832C289.042 62.1364 290.513 63.6389 292.329 63.6389H303.286C305.101 63.6389 306.573 62.1364 306.573 60.2832ZM214.532 87.1285V75.943C214.532 74.0898 213.061 72.5873 211.245 72.5873H200.288C198.473 72.5873 197.001 74.0898 197.001 75.943V87.1285C197.001 88.9816 198.473 90.4841 200.288 90.4841H211.245C213.061 90.4841 214.532 88.9816 214.532 87.1285ZM293.425 87.1285V75.943C293.425 74.0898 291.953 72.5873 290.137 72.5873H226.585C224.77 72.5873 223.298 74.0898 223.298 75.943V87.1285C223.298 88.9816 224.77 90.4841 226.585 90.4841H290.137C291.953 90.4841 293.425 88.9816 293.425 87.1285ZM319.722 87.1285V75.943C319.722 74.0898 318.25 72.5873 316.435 72.5873H305.477C303.662 72.5873 302.19 74.0898 302.19 75.943V87.1285C302.19 88.9816 303.662 90.4841 305.477 90.4841H316.435C318.25 90.4841 319.722 88.9816 319.722 87.1285Z"
            fill="#F4A919" />
    </g>
    <g filter="url(#filter2_d_145_908)">
        <path
            d="M129.433 240.422V240.422C126.139 240.422 123.202 238.345 122.105 235.239L93.2457 153.58C92.7401 152.063 91.7822 150.747 90.5062 149.814C89.2303 148.882 87.7004 148.381 86.1313 148.381H75.0582C73.4891 148.381 71.9592 148.882 70.6833 149.814C69.4073 150.747 68.4494 152.063 67.9438 153.58L39.0849 235.239C37.9873 238.345 35.0509 240.422 31.7568 240.422V240.422C30.7604 240.422 29.8049 240.826 29.1003 241.545C28.3958 242.264 28 243.24 28 244.257V251.927C28 252.944 28.3958 253.919 29.1003 254.639C29.8049 255.358 30.7604 255.762 31.7568 255.762H61.8109C62.8073 255.762 63.7628 255.358 64.4673 254.639C65.1719 253.919 65.5677 252.944 65.5677 251.927V244.257C65.5677 243.24 65.1719 242.264 64.4673 241.545C63.7628 240.826 62.8073 240.422 61.8109 240.422V240.422C59.57 240.422 58.0051 238.202 58.7579 236.092L60.8678 230.175C61.9571 227.121 64.8495 225.082 68.0922 225.082H93.0973C96.3401 225.082 99.2324 227.121 100.322 230.175L102.432 236.092C103.184 238.202 101.619 240.422 99.3786 240.422V240.422C98.3822 240.422 97.4267 240.826 96.7222 241.545C96.0176 242.264 95.6218 243.24 95.6218 244.257V251.927C95.6218 252.944 96.0176 253.919 96.7222 254.639C97.4267 255.358 98.3822 255.762 99.3786 255.762H129.433C130.429 255.762 131.385 255.358 132.089 254.639C132.794 253.919 133.189 252.944 133.189 251.927V244.257C133.189 243.24 132.794 242.264 132.089 241.545C131.385 240.826 130.429 240.422 129.433 240.422ZM80.5947 205.906C75.1986 205.906 71.4304 200.562 73.2433 195.479V195.479C75.7082 188.569 85.4813 188.569 87.9462 195.479V195.479C89.759 200.562 85.9909 205.906 80.5947 205.906V205.906Z"
            fill="#39C26F" />
    </g>
    <g filter="url(#filter3_d_145_908)">
        <path
            d="M316.476 240.664C320.268 247.374 315.508 255.762 307.934 255.762H209.342C201.753 255.762 197.015 247.361 200.8 240.664L250.096 153.411C253.89 146.698 263.393 146.71 267.18 153.411L316.476 240.664ZM258.638 222.625C253.419 222.625 249.188 226.944 249.188 232.272C249.188 237.601 253.419 241.92 258.638 241.92C263.858 241.92 268.089 237.601 268.089 232.272C268.089 226.944 263.858 222.625 258.638 222.625ZM249.666 187.947L251.19 216.47C251.261 217.805 252.342 218.85 253.652 218.85H263.625C264.935 218.85 266.016 217.805 266.087 216.47L267.611 187.947C267.688 186.505 266.564 185.293 265.149 185.293H252.127C250.713 185.293 249.589 186.505 249.666 187.947Z"
            fill="#2D9CDB" />
    </g>
    <defs>
        <filter id="filter0_d_145_908" x="0" y="0" width="161.469" height="111.381"
            filterUnits="userSpaceOnUse" color-interpolation-filters="sRGB">
            <feFlood flood-opacity="0" result="BackgroundImageFix" />
            <feColorMatrix in="SourceAlpha" type="matrix"
                values="0 0 0 0 0 0 0 0 0 0 0 0 0 0 0 0 0 0 127 0" result="hardAlpha" />
            <feOffset dy="1" />
            <feGaussianBlur stdDeviation="1" />
            <feComposite in2="hardAlpha" operator="out" />
            <feColorMatrix type="matrix" values="0 0 0 0 0 0 0 0 0 0 0 0 0 0 0 0 0 0 0.25 0" />
            <feBlend mode="normal" in2="BackgroundImageFix" result="effect1_dropShadow_145_908" />
            <feBlend mode="normal" in="SourceGraphic" in2="effect1_dropShadow_145_908"
                result="shape" />
        </filter>
        <filter id="filter1_d_145_908" x="177.469" y="0" width="161.784" height="111.381"
            filterUnits="userSpaceOnUse" color-interpolation-filters="sRGB">
            <feFlood flood-opacity="0" result="BackgroundImageFix" />
            <feColorMatrix in="SourceAlpha" type="matrix"
                values="0 0 0 0 0 0 0 0 0 0 0 0 0 0 0 0 0 0 127 0" result="hardAlpha" />
            <feOffset dy="1" />
            <feGaussianBlur stdDeviation="1" />
            <feComposite in2="hardAlpha" operator="out" />
            <feColorMatrix type="matrix" values="0 0 0 0 0 0 0 0 0 0 0 0 0 0 0 0 0 0 0.25 0" />
            <feBlend mode="normal" in2="BackgroundImageFix" result="effect1_dropShadow_145_908" />
            <feBlend mode="normal" in="SourceGraphic" in2="effect1_dropShadow_145_908"
                result="shape" />
        </filter>
        <filter id="filter2_d_145_908" x="26" y="147.381" width="109.189" height="111.381"
            filterUnits="userSpaceOnUse" color-interpolation-filters="sRGB">
            <feFlood flood-opacity="0" result="BackgroundImageFix" />
            <feColorMatrix in="SourceAlpha" type="matrix"
                values="0 0 0 0 0 0 0 0 0 0 0 0 0 0 0 0 0 0 127 0" result="hardAlpha" />
            <feOffset dy="1" />
            <feGaussianBlur stdDeviation="1" />
            <feComposite in2="hardAlpha" operator="out" />
            <feColorMatrix type="matrix" values="0 0 0 0 0 0 0 0 0 0 0 0 0 0 0 0 0 0 0.25 0" />
            <feBlend mode="normal" in2="BackgroundImageFix" result="effect1_dropShadow_145_908" />
            <feBlend mode="normal" in="SourceGraphic" in2="effect1_dropShadow_145_908"
                result="shape" />
        </filter>
        <filter id="filter3_d_145_908" x="197.469" y="147.381" width="122.338" height="111.381"
            filterUnits="userSpaceOnUse" color-interpolation-filters="sRGB">
            <feFlood flood-opacity="0" result="BackgroundImageFix" />
            <feColorMatrix in="SourceAlpha" type="matrix"
                values="0 0 0 0 0 0 0 0 0 0 0 0 0 0 0 0 0 0 127 0" result="hardAlpha" />
            <feOffset dy="1" />
            <feGaussianBlur stdDeviation="1" />
            <feComposite in2="hardAlpha" operator="out" />
            <feColorMatrix type="matrix" values="0 0 0 0 0 0 0 0 0 0 0 0 0 0 0 0 0 0 0.25 0" />
            <feBlend mode="normal" in2="BackgroundImageFix" result="effect1_dropShadow_145_908" />
            <feBlend mode="normal" in="SourceGraphic" in2="effect1_dropShadow_145_908"
                result="shape" />
        </filter>
    </defs>
</svg>